<?xml version="1.0" standalone="no"?>
<!DOCTYPE svg PUBLIC "-//W3C//DTD SVG 20010904//EN"
 "http://www.w3.org/TR/2001/REC-SVG-20010904/DTD/svg10.dtd">
<svg version="1.0" xmlns="http://www.w3.org/2000/svg"
 width="500.000000pt" height="500.000000pt" viewBox="0 0 500.000000 500.000000"
 preserveAspectRatio="xMidYMid meet">

<g transform="translate(0.000000,500.000000) scale(0.100000,-0.100000)"
fill="#000000" stroke="none">
<path d="M2215 4665 c-831 -110 -1523 -680 -1784 -1470 -77 -236 -111 -441
-111 -680 0 -562 213 -1094 600 -1499 333 -348 770 -578 1235 -650 57 -8 150
-15 122 -8 -16 4 -34 19 -42 36 -18 35 -18 36 -1 36 9 0 16 16 20 43 5 32 14
47 34 60 l27 16 -30 1 c-19 1 -25 4 -15 8 18 9 26 36 8 30 -23 -8 -36 23 -26
59 7 25 6 39 -3 50 -11 12 -10 17 4 25 10 5 15 13 12 18 -3 5 -1 12 5 15 13 8
40 -12 40 -29 0 -6 -5 -4 -10 4 -8 13 -10 12 -10 -2 0 -10 7 -18 15 -18 8 0
15 -7 15 -15 0 -9 -7 -15 -16 -13 -30 5 -29 -50 1 -78 14 -13 23 -21 20 -17
-3 3 0 12 7 20 9 11 7 12 -7 7 -15 -6 -16 -4 -5 15 9 18 9 22 -2 19 -8 -2 -15
0 -16 5 -1 4 0 6 3 5 9 -6 34 38 35 60 0 30 46 102 65 102 8 0 18 12 21 27 4
16 10 33 14 38 4 6 10 33 13 62 7 59 20 85 51 99 11 5 20 17 20 27 -2 13 3 16
17 12 15 -5 19 -1 19 15 0 12 7 28 15 37 8 8 13 19 9 24 -8 14 23 59 41 59 9
0 15 10 15 25 0 17 5 25 14 23 8 -2 15 2 16 7 2 17 32 45 49 45 10 0 24 19 35
46 10 25 25 48 32 51 8 3 14 14 14 24 0 10 7 19 15 19 9 0 21 11 27 25 6 14
17 25 24 25 17 0 46 42 36 52 -5 5 -21 4 -36 -2 -64 -24 -137 -5 -162 41 -20
40 -18 81 18 282 36 202 43 217 107 217 50 0 64 -18 57 -72 -5 -38 -4 -36 13
17 50 164 116 235 216 235 20 0 45 -5 57 -11 25 -13 48 -67 48 -112 0 -32 -3
-35 -43 -45 -116 -30 -207 -169 -237 -365 -6 -43 -8 -86 -4 -95 14 -33 10 -51
-14 -61 -19 -9 -22 -14 -12 -26 14 -17 43 -8 36 12 -4 9 -2 11 6 7 7 -5 9 2 6
20 -5 25 -3 27 18 23 16 -3 24 0 24 9 0 8 10 14 24 14 19 0 24 -4 21 -20 -2
-11 0 -20 6 -20 10 0 7 23 -10 65 -16 38 -17 147 -2 202 29 106 120 183 222
188 36 2 56 9 70 24 24 25 17 25 73 1 38 -18 62 -20 146 -17 55 2 102 6 106 9
3 4 -3 4 -13 2 -14 -4 -19 0 -19 16 0 14 5 19 15 15 11 -5 12 -3 1 10 -16 20
-2 37 32 40 26 2 37 33 16 46 -10 7 -10 9 0 9 7 0 10 5 6 12 -4 7 -3 8 5 4 6
-4 8 -12 5 -18 -4 -7 -2 -8 4 -4 7 4 12 12 12 18 0 6 11 26 25 44 33 43 97 67
168 62 30 -1 53 0 51 3 -2 4 3 9 11 12 9 4 12 1 8 -9 -3 -9 4 -24 16 -35 l22
-20 -5 25 c-6 31 7 41 35 26 11 -7 24 -8 27 -4 4 4 2 9 -5 11 -24 9 9 28 43
27 19 -1 34 2 34 7 0 5 10 9 21 9 17 0 19 3 10 14 -17 21 2 29 66 29 30 0 48
4 41 8 -9 6 -7 10 7 15 11 4 23 9 27 11 4 2 5 -2 3 -10 -3 -7 -1 -24 4 -38 19
-45 4 295 -18 421 -51 292 -170 562 -351 800 -36 48 -56 81 -49 85 6 4 16 1
22 -7 278 -340 416 -700 443 -1161 4 -65 11 -120 16 -124 6 -3 8 8 4 28 -3 19
-3 27 1 19 10 -25 24 -28 59 -14 18 8 47 14 63 14 17 0 41 5 55 11 20 10 30 9
50 -5 14 -9 28 -16 32 -16 7 0 -3 192 -16 310 -70 617 -428 1192 -964 1547
-215 143 -481 254 -736 308 -204 44 -520 57 -725 30z m207 -217 c-15 -15 -26
-4 -18 18 5 13 9 15 18 6 9 -9 9 -15 0 -24z m368 -53 c-6 -26 -9 -49 -8 -50 9
-8 139 -32 142 -27 2 4 7 26 11 49 6 40 20 61 31 50 2 -2 -7 -60 -21 -128 -14
-68 -25 -125 -25 -126 0 -2 -5 -3 -11 -3 -11 0 -6 80 7 114 4 10 -12 17 -60
26 -36 7 -69 12 -73 12 -5 -1 -13 -24 -20 -52 -6 -28 -14 -54 -17 -57 -18 -18
-17 18 3 119 27 138 29 144 42 131 6 -6 6 -26 -1 -58z m-775 -22 c9 -51 14
-56 31 -38 22 22 79 19 102 -6 18 -18 48 -127 38 -137 -11 -11 -25 12 -31 51
-13 79 -52 108 -100 73 -15 -11 -17 -21 -12 -60 4 -25 10 -58 13 -72 5 -20 3
-25 -7 -22 -14 5 -72 236 -62 251 9 14 21 -3 28 -40z m-54 -98 c22 -59 39
-112 39 -117 0 -5 -9 -6 -20 -3 -12 4 -20 2 -20 -4 0 -6 -15 -19 -34 -28 -46
-21 -88 -5 -111 44 -31 64 5 123 75 123 l39 0 -14 41 c-18 50 -19 62 -4 57 6
-2 29 -53 50 -113z m394 58 c3 -32 8 -70 10 -85 4 -27 -9 -46 -19 -29 -4 5
-19 3 -37 -6 -42 -21 -84 -3 -98 41 -19 62 -22 116 -7 116 9 0 15 -19 20 -57
8 -67 19 -83 56 -83 42 0 55 23 52 96 -4 80 14 85 23 7z m75 -33 c0 -53 -4
-90 -10 -90 -5 0 -10 1 -10 3 -13 139 -12 177 4 177 14 0 16 -13 16 -90z m160
75 c16 -19 5 -34 -12 -17 -7 7 -25 12 -40 12 -42 0 -38 -35 6 -50 45 -15 70
-43 61 -70 -12 -38 -85 -49 -122 -18 -22 18 -3 28 26 13 37 -19 73 -9 69 19
-2 14 -14 25 -36 32 -51 16 -68 38 -54 69 10 20 19 25 51 25 22 0 44 -6 51
-15z m534 -96 c30 -24 36 -76 10 -86 -9 -3 -40 1 -68 11 -66 20 -66 20 -66 -2
0 -27 32 -52 74 -59 44 -7 48 -23 6 -23 -93 0 -137 91 -77 158 27 29 84 30
121 1z m-1349 -129 c25 -49 45 -97 45 -106 0 -28 -56 -74 -89 -74 -17 0 -31 5
-31 10 0 6 12 10 27 10 35 0 63 27 63 61 0 31 -15 47 -23 24 -3 -7 -20 -21
-38 -30 -25 -13 -36 -14 -58 -5 -32 13 -61 58 -61 94 0 37 41 76 80 76 16 0
29 3 29 8 -2 12 1 22 6 22 3 0 25 -40 50 -90z m1665 76 c0 -8 -9 -31 -21 -50
l-21 -36 24 0 c69 0 88 -68 42 -149 -33 -57 -31 -54 -44 -46 -7 4 0 24 20 59
35 62 37 77 11 100 -32 29 -62 16 -98 -39 -32 -49 -53 -67 -53 -46 0 15 123
221 132 221 4 0 8 -6 8 -14z m-136 -17 c14 -11 26 -29 26 -40 0 -26 -15 -24
-28 5 -23 50 -102 38 -116 -19 -12 -48 31 -91 79 -79 19 5 25 2 25 -10 0 -27
-63 -20 -99 10 -88 74 22 204 113 133z m-1714 -139 c42 -65 50 -88 29 -82 -6
1 -20 -10 -33 -25 -25 -29 -74 -36 -100 -14 -26 22 -76 110 -66 116 5 3 24
-17 42 -45 45 -69 95 -80 119 -26 10 22 7 32 -20 74 -30 48 -38 72 -23 72 4 0
27 -31 52 -70z m2030 18 c0 -7 -7 -22 -16 -33 -13 -18 -12 -21 8 -37 27 -20
16 -38 -12 -20 -27 17 -25 17 -60 -34 -29 -42 -31 -47 -16 -63 20 -22 20 -31
1 -31 -8 0 -22 11 -31 25 -16 25 -16 27 21 81 29 42 35 58 25 64 -7 4 -9 13
-5 19 5 9 10 9 20 1 11 -9 17 -6 30 14 18 28 35 34 35 14z m-2202 -106 c18
-23 16 -26 -38 -72 -54 -45 -56 -60 -8 -60 21 0 39 10 59 31 35 37 52 31 22
-9 -43 -58 -103 -64 -149 -15 -30 32 -31 72 -3 107 37 47 88 55 117 18z m2292
-37 c46 -24 67 -84 38 -113 -20 -20 -38 -14 -89 29 l-48 40 -7 -25 c-8 -33 17
-73 51 -82 25 -6 31 -15 19 -27 -10 -9 -61 20 -78 45 -32 45 -12 118 38 138
31 13 44 12 76 -5z m-2482 -69 c61 -62 72 -79 72 -108 0 -41 -34 -78 -73 -81
-37 -3 -38 15 -2 25 31 8 55 32 55 56 0 8 -31 47 -70 86 -64 67 -83 96 -62 96
5 0 41 -33 80 -74z m2662 17 c0 -4 -37 -45 -82 -90 -70 -71 -80 -84 -68 -98
15 -18 7 -30 -15 -22 -8 4 -15 18 -15 35 0 22 17 45 79 105 71 70 101 90 101
70z m-2820 -173 c0 -6 -26 -45 -59 -88 -353 -464 -466 -1075 -303 -1637 147
-505 489 -911 967 -1147 66 -32 121 -63 123 -68 9 -24 -26 -14 -136 40 -563
278 -950 812 -1036 1429 -20 140 -20 384 -1 520 47 328 168 615 378 894 48 64
67 80 67 57z m1027 -101 c42 -40 59 -50 79 -46 17 3 28 -1 34 -13 7 -13 28
-20 70 -25 50 -6 70 -14 111 -46 40 -32 48 -44 43 -63 -3 -12 4 -60 15 -106
28 -113 27 -144 -5 -169 -75 -59 -174 19 -130 103 9 17 34 55 56 85 22 30 40
57 40 61 0 4 -20 21 -45 39 -55 40 -143 58 -161 33 -7 -9 -18 -13 -29 -9 -12
5 -39 -11 -92 -53 -41 -33 -82 -60 -92 -60 -9 0 -36 -20 -60 -44 -83 -85 -125
-85 -197 -1 -26 30 -56 55 -66 55 -10 0 -15 -5 -12 -13 8 -21 -23 -42 -40 -28
-12 10 -25 2 -68 -42 -30 -29 -66 -74 -81 -100 -30 -51 -66 -172 -54 -183 4
-4 40 0 80 9 94 22 117 22 157 -5 46 -31 59 -76 70 -242 14 -196 14 -227 1
-260 -22 -54 -2 -38 29 24 45 90 108 283 123 381 12 77 15 85 46 106 39 26
111 39 153 27 17 -5 40 -22 52 -37 18 -25 19 -32 8 -84 -24 -114 -186 -417
-301 -560 l-41 -53 -120 0 c-113 0 -120 1 -134 23 -8 13 -22 103 -35 233 -24
239 -32 274 -66 274 -34 0 -42 17 -49 105 -12 144 31 265 136 379 32 36 58 68
57 73 -5 26 2 35 23 29 17 -4 48 11 118 56 120 78 112 70 119 115 6 37 7 38
81 59 110 32 116 31 177 -27z m1247 -570 c15 -12 32 -33 37 -47 8 -22 5 -29
-30 -58 -51 -44 -66 -85 -96 -267 -14 -83 -27 -160 -29 -170 -6 -25 20 -47 55
-47 l29 0 0 70 c0 182 116 304 290 305 94 0 121 -7 165 -47 49 -42 65 -77 65
-140 0 -104 -62 -163 -171 -163 -73 0 -109 23 -109 69 0 31 3 34 45 45 41 10
45 14 45 41 0 35 -19 47 -49 30 -31 -16 -51 -63 -53 -122 -1 -71 24 -91 117
-91 6 0 38 3 73 6 59 6 63 5 73 -16 8 -18 7 -33 -7 -63 -9 -21 -16 -43 -15
-47 1 -5 -2 -6 -7 -3 -5 3 -31 -6 -58 -19 -40 -20 -65 -24 -133 -25 -103 0
-149 13 -201 57 l-40 34 -31 -22 c-94 -67 -239 -91 -293 -48 -14 11 -26 27
-26 36 0 8 -3 13 -7 11 -132 -65 -140 -68 -198 -68 -73 0 -101 16 -115 69 -9
35 -1 148 15 201 2 8 20 106 39 216 19 111 40 211 47 222 29 46 118 54 204 18
32 -14 36 -19 30 -38 -37 -117 -95 -407 -95 -478 0 -32 5 -38 35 -53 l34 -16
6 37 c4 20 15 82 26 137 10 55 25 141 33 192 27 168 50 219 113 252 54 29 151
28 187 0z m-951 -109 c141 -48 266 -106 273 -125 3 -8 -4 -30 -16 -50 -18 -29
-23 -59 -30 -161 -11 -169 -29 -206 -122 -253 -44 -22 -87 -36 -123 -39 -46
-4 -60 -9 -80 -34 -14 -16 -25 -36 -25 -43 0 -7 23 -30 50 -50 90 -66 58 -80
-83 -35 -225 71 -319 151 -144 122 34 -5 66 -6 70 -2 5 4 11 26 14 48 5 38 2
45 -37 89 -116 130 -106 251 34 411 35 39 60 78 67 105 13 48 17 57 28 57 5 0
61 -18 124 -40z m-846 -665 c119 -35 180 -122 171 -245 -11 -143 -104 -240
-233 -240 -91 0 -133 33 -136 108 -2 66 -31 -123 -31 -205 l0 -92 -46 -22
c-32 -15 -67 -22 -110 -23 -58 -1 -66 2 -88 27 -33 39 -31 75 19 313 l43 201
-28 16 c-31 18 -35 45 -18 109 10 33 14 37 53 43 193 27 334 31 404 10z m2173
-11 c0 -8 -19 -13 -24 -6 -3 5 1 9 9 9 8 0 15 -2 15 -3z m-1126 -59 c-1 -11
-4 -41 -9 -67 l-7 -47 68 -3 69 -3 -3 -39 c-4 -53 -26 -93 -65 -117 -31 -20
-58 -21 -137 -4 -21 4 -21 4 4 -6 25 -10 27 -15 22 -42 -4 -17 -9 -54 -12 -83
-6 -46 -4 -53 14 -63 11 -6 33 -11 49 -11 15 0 35 -5 43 -10 13 -8 12 -15 -8
-53 -40 -76 -131 -117 -227 -103 -56 9 -92 37 -106 86 l-12 39 -44 -39 c-68
-60 -139 -83 -253 -84 -111 -1 -170 21 -220 82 -81 98 -53 295 56 391 56 49
118 71 201 71 74 0 125 -19 171 -63 80 -78 64 -220 -30 -266 -82 -39 -188 -21
-202 35 -9 32 -3 39 49 56 35 11 40 17 40 43 0 25 -5 31 -26 33 -61 7 -106
-133 -60 -189 16 -19 30 -24 89 -27 85 -5 151 14 205 61 34 28 40 41 52 102
12 68 12 69 -11 88 -17 13 -24 29 -24 51 0 37 17 56 70 76 19 8 57 33 85 55
84 69 98 76 135 73 28 -2 35 -7 34 -23z m986 -99 c0 -8 -7 -16 -15 -20 -13 -4
-14 -2 -5 14 13 23 20 26 20 6z m29 -15 c-15 -5 -22 6 -14 19 6 9 10 9 16 -1
5 -8 4 -15 -2 -18z m-66 4 c-3 -9 -8 -14 -10 -11 -3 3 -2 9 2 15 9 16 15 13 8
-4z m-1123 -1195 c0 -11 -4 -20 -10 -20 -5 0 -10 9 -10 20 0 11 5 20 10 20 6
0 10 -9 10 -20z m-325 -165 c28 -27 31 -38 12 -53 -10 -8 -24 -8 -51 -1 -21 6
-40 8 -42 6 -11 -11 30 -37 58 -37 26 0 29 -2 18 -15 -27 -32 -100 12 -100 60
0 24 42 65 67 65 8 0 25 -11 38 -25z m132 -32 c12 -17 12 -22 1 -29 -7 -4 -10
-4 -6 1 11 12 -43 38 -55 26 -5 -5 2 -14 19 -22 18 -9 30 -24 34 -44 6 -29 5
-30 -30 -33 -41 -3 -83 29 -59 44 7 4 15 2 17 -4 4 -14 42 -16 42 -2 0 5 -10
15 -22 21 -32 17 -38 30 -27 52 14 25 67 19 86 -10z"/>
<path d="M1847 4252 c-36 -40 -9 -112 42 -112 41 0 64 22 63 60 -2 61 -67 94
-105 52z"/>
<path d="M3024 4266 c-18 -14 -17 -15 17 -30 19 -8 47 -18 62 -21 23 -6 27 -4
27 13 0 42 -67 66 -106 38z"/>
<path d="M1655 4176 c-41 -30 -10 -116 42 -116 28 0 63 33 63 59 0 28 -39 71
-64 71 -12 0 -31 -6 -41 -14z"/>
<path d="M1321 3954 c-44 -56 -17 -78 39 -33 48 39 52 59 11 59 -20 0 -36 -9
-50 -26z"/>
<path d="M3636 3922 c-3 -5 15 -26 41 -47 36 -30 47 -35 54 -24 13 21 11 28
-16 54 -23 24 -69 34 -79 17z"/>
<path d="M1796 3449 c-36 -28 -66 -56 -66 -62 0 -5 12 -29 27 -53 42 -66 64
-64 141 9 l63 62 -30 14 c-28 13 -35 12 -93 -12 -77 -32 -89 -35 -94 -21 -6
13 122 84 152 84 12 0 26 -4 29 -10 3 -5 11 -10 18 -10 20 0 -26 37 -54 44
-22 5 -39 -4 -93 -45z"/>
<path d="M2320 2732 c-69 -31 -120 -99 -120 -159 0 -36 5 -46 39 -75 42 -36
119 -68 164 -68 53 0 87 56 87 145 0 66 -23 128 -55 149 -25 16 -88 20 -115 8z"/>
<path d="M1372 2053 c-26 -120 -26 -127 -8 -120 10 4 27 7 38 7 11 0 33 13 49
29 54 54 31 131 -38 131 -29 0 -32 -3 -41 -47z"/>
<path d="M2026 721 c-4 -5 8 -12 25 -16 33 -7 45 -3 34 14 -8 13 -52 14 -59 2z"/>
<path d="M4640 2433 c0 -18 2 -33 4 -33 9 0 13 39 5 51 -6 10 -9 4 -9 -18z"/>
<path d="M4641 2324 c0 -11 3 -14 6 -6 3 7 2 16 -1 19 -3 4 -6 -2 -5 -13z"/>
<path d="M4027 2259 c4 -13 8 -18 11 -10 2 7 -1 18 -6 23 -8 8 -9 4 -5 -13z"/>
<path d="M3285 1901 c-8 -17 -15 -40 -14 -53 0 -15 3 -18 6 -8 9 24 35 50 44
44 5 -3 9 0 9 6 0 7 7 10 15 6 26 -10 16 3 -15 19 -29 15 -30 15 -45 -14z m35
-1 c-20 -13 -33 -13 -25 0 3 6 14 10 23 10 15 0 15 -2 2 -10z"/>
<path d="M3070 1616 c0 -4 7 -14 15 -22 8 -9 15 -11 15 -6 0 5 -7 15 -15 22
-8 7 -15 9 -15 6z"/>
<path d="M2481 974 c0 -11 3 -14 6 -6 3 7 2 16 -1 19 -3 4 -6 -2 -5 -13z"/>
<path d="M2406 733 c-6 -14 -5 -15 5 -6 7 7 10 15 7 18 -3 3 -9 -2 -12 -12z"/>
<path d="M2445 739 c-4 -6 -5 -12 -2 -15 2 -3 7 2 10 11 7 17 1 20 -8 4z"/>
<path d="M2318 353 c7 -3 16 -2 19 1 4 3 -2 6 -13 5 -11 0 -14 -3 -6 -6z"/>
<path d="M2458 343 c7 -3 16 -2 19 1 4 3 -2 6 -13 5 -11 0 -14 -3 -6 -6z"/>
</g>
</svg>
